# xmcd
#
# Track frame offsets:
#	150
#	20435
#	56368
#	75746
#	121320
#	147859
#	173167
#	203973
#	224744
#	235016
#	262440
#	296904
#
# Disc length: 4800 seconds
#
# Revision: 1
# Processed by: cddbd v1.5.2PL0 Copyright (c) Steve Scherf et al.
# Submitted via: audiograbber 1.83.01
#
DISCID=bb12be0c
DTITLE=Grateful Dead - 72-08-20 San Jose Civic Auditorium, San Jose CA
DYEAR=1900
DGENRE=
TTITLE0=Me and My Uncle
TTITLE1=Sugaree
TTITLE2=Beat It On Down The Line
TTITLE3=Bird Song
TTITLE4=Jack Straw
TTITLE5=Friend Of The Devil
TTITLE6=Black Throated Wind
TTITLE7=Cumberland Blues
TTITLE8=Tuning
TTITLE9=El Paso
TTITLE10=Loser
TTITLE11=Playing In The Band
EXTD=
EXTT0=
EXTT1=
EXTT2=
EXTT3=
EXTT4=
EXTT5=
EXTT6=
EXTT7=
EXTT8=
EXTT9=
EXTT10=
EXTT11=
PLAYORDER=
